<svg width="20" height="20" viewBox="0 0 20 20" fill="none" xmlns="http://www.w3.org/2000/svg">
<path d="M9.4668 1C4.78715 1 1 4.78682 1 9.4668C1 14.1117 4.75278 18 9.4668 18C14.1366 18 18 14.1513 18 9.4668C18 4.74764 14.1067 1 9.4668 1ZM9.4668 17.0105C5.34745 17.0105 1.98945 13.6228 1.98945 9.4668C1.98945 5.34745 5.34745 1.98945 9.4668 1.98945C13.6228 1.98945 17.0105 5.34745 17.0105 9.4668C17.0105 13.6228 13.6228 17.0105 9.4668 17.0105Z" fill="#5BC7D7"/>
<path d="M9.4668 3.98828C6.44594 3.98828 3.98828 6.44594 3.98828 9.4668C3.98828 12.499 6.4409 15.0117 9.4668 15.0117C10.6911 15.0117 11.9296 14.6002 12.8648 13.8828C13.083 13.7153 13.1242 13.4027 12.9567 13.1845C12.7893 12.9662 12.4766 12.925 12.2584 13.0925C11.4938 13.6791 10.4763 14.0223 9.4668 14.0223C6.99519 14.0223 4.98438 11.975 4.98438 9.4668C4.98438 6.99519 6.99519 4.97773 9.4668 4.97773C11.975 4.97773 14.0156 6.99519 14.0156 9.4668V9.96484C14.0156 10.5141 13.5688 10.9609 13.0195 10.9609C12.4703 10.9609 12.0234 10.5141 12.0234 9.96484C12.0234 9.71814 12.0234 7.73479 12.0234 7.47461C12.0234 7.19955 11.8004 6.97656 11.5254 6.97656C11.2503 6.97656 11.0273 7.19955 11.0273 7.47461V7.50619C10.5776 7.16323 10.0335 6.97656 9.4668 6.97656C8.09368 6.97656 6.97656 8.09368 6.97656 9.4668C6.97656 10.8399 8.09368 11.957 9.4668 11.957C10.2113 11.957 10.8965 11.6376 11.3838 11.1C11.744 11.6174 12.3427 11.957 13.0195 11.957C14.118 11.957 15.0117 11.0633 15.0117 9.96484V9.4668C15.0117 6.43688 12.4953 3.98828 9.4668 3.98828ZM9.4668 10.9676C8.64293 10.9676 7.97266 10.2907 7.97266 9.4668C7.97266 8.64293 8.64293 7.96602 9.4668 7.96602C10.3127 7.96602 11.0273 8.65687 11.0273 9.4668C11.0273 10.2767 10.3127 10.9676 9.4668 10.9676Z" fill="#5BC7D7"/>
</svg>
