<svg width="20" height="20" viewBox="0 0 20 20" fill="none" xmlns="http://www.w3.org/2000/svg">
<path d="M10 0C13.877 0 17.0312 3.15422 17.0312 7.03125C17.0312 8.34117 16.6684 9.61953 15.9817 10.7286L10.4002 19.723C10.2933 19.8953 10.105 20 9.90238 20C9.90082 20 9.8993 20 9.89773 20C9.6934 19.9984 9.50465 19.8905 9.39969 19.7152L3.96051 10.6336C3.31168 9.54797 2.96875 8.30231 2.96875 7.03125C2.96875 3.15422 6.12297 0 10 0ZM4.96617 10.032L9.91125 18.2885L14.9857 10.1112C15.5573 9.18805 15.8672 8.12305 15.8672 7.03125C15.8672 3.80039 13.2309 1.16406 10 1.16406C6.76914 1.16406 4.13672 3.80039 4.13672 7.03125C4.13672 8.09066 4.42621 9.12844 4.96617 10.032Z" fill="#5BC7D7"/>
<path d="M9.98006 9.64844C10.0827 9.64844 10.1753 9.68981 10.2423 9.75766C10.3094 9.8255 10.3516 9.91735 10.3516 10.0191C10.3516 10.1002 10.3251 10.1755 10.2812 10.2367L10.3267 10.3749L10.1844 10.3294C10.1257 10.3683 10.0562 10.3906 9.98006 10.3906C9.77568 10.3906 9.60938 10.2243 9.60938 10.0199C9.60938 9.81475 9.77568 9.64844 9.98006 9.64844ZM9.7641 10.1722C9.7732 10.197 9.80878 10.2185 9.83691 10.2243C9.85594 10.2285 9.88159 10.2318 9.96682 10.1962C10.076 10.1507 10.1464 10.0398 10.1513 10.0332C10.1563 10.0257 10.1952 9.97444 10.1952 9.92148C10.1952 9.86853 10.1679 9.84205 10.1571 9.8313C10.148 9.82219 10.1331 9.81806 10.1191 9.81806C10.1149 9.81806 10.1108 9.81806 10.1066 9.81806C10.0959 9.81888 10.0901 9.81888 10.0835 9.83626C10.0744 9.85777 10.0529 9.91073 10.0504 9.91652C10.0479 9.92231 10.0454 9.92976 10.0487 9.93638C10.052 9.94382 10.0553 9.94713 10.0611 9.95375C10.0669 9.96037 10.0719 9.96451 10.0777 9.97196C10.0827 9.97775 10.0884 9.98437 10.0818 9.99512C10.0752 10.0059 10.0537 10.0415 10.0214 10.0696C9.98006 10.1068 9.94613 10.1184 9.93455 10.1234C9.92545 10.1275 9.91469 10.1259 9.90807 10.1192C9.8998 10.1101 9.88987 10.0952 9.87911 10.0812C9.87166 10.0704 9.86256 10.0696 9.85263 10.0729C9.8427 10.0762 9.78975 10.1027 9.77899 10.1077C9.76824 10.1134 9.76079 10.1159 9.75831 10.1201C9.755 10.125 9.755 10.1474 9.7641 10.1722Z" fill="#1B1A1A"/>
<path d="M10 3.51562C11.9385 3.51562 13.5156 5.09273 13.5156 7.03125C13.5156 8.95738 11.9642 10.5469 10 10.5469C8.0116 10.5469 6.48438 8.93621 6.48438 7.03125C6.48438 5.09273 8.06148 3.51562 10 3.51562ZM10 9.38281C11.2991 9.38281 12.3516 8.32684 12.3516 7.03125C12.3516 5.73891 11.2923 4.67969 10 4.67969C8.70766 4.67969 7.65234 5.73891 7.65234 7.03125C7.65234 8.30793 8.68031 9.38281 10 9.38281Z" fill="#5BC7D7"/>
</svg>
