<svg width="20" height="20" viewBox="0 0 20 20" fill="none" xmlns="http://www.w3.org/2000/svg">
<path d="M11.0468 8.77505L11.069 8.75279C11.0468 8.77506 11.0468 8.77505 11.0468 8.77505ZM11.0468 8.77505L11.069 8.75279C11.0468 8.77506 11.0468 8.77505 11.0468 8.77505ZM10 0C4.47661 0 0 4.47661 0 10C0 15.5234 4.47661 20 10 20C15.5234 20 20 15.5234 20 10C20 4.47661 15.5234 0 10 0ZM7.34967 14.922H4.96659V7.72829H7.34967V14.922ZM6.14699 6.7706C5.32294 6.7706 4.81069 6.21381 4.81069 5.52339C4.81069 4.81069 5.34521 4.27617 6.16926 4.27617C6.99332 4.27617 7.4833 4.81069 7.50557 5.52339C7.50557 6.21381 6.99332 6.7706 6.14699 6.7706ZM15.9688 14.922H13.5857V11.069C13.5857 10.1114 13.2517 9.4432 12.3831 9.4432C11.7149 9.4432 11.3363 9.88864 11.1581 10.3118C11.0913 10.4677 11.069 10.6681 11.069 10.8909V14.8998H8.6637C8.6637 14.8998 8.70824 8.39644 8.6637 7.70601H11.0468V8.73051C11.3586 8.24054 11.9376 7.55011 13.2071 7.55011C14.7884 7.55011 15.9465 8.57461 15.9465 10.7795V14.922H15.9688ZM11.069 8.77505V8.75279C11.0468 8.77506 11.0468 8.77505 11.069 8.77505ZM11.0468 8.77505L11.069 8.75279C11.0468 8.77506 11.0468 8.77505 11.0468 8.77505ZM11.0468 8.77505L11.069 8.75279C11.0468 8.77506 11.0468 8.77505 11.0468 8.77505Z" fill="#5BC7D7"/>
</svg>
