<svg width="20" height="20" viewBox="0 0 20 20" fill="none" xmlns="http://www.w3.org/2000/svg">
<path d="M10.0111 0C7.24638 0 4.74916 1.11483 2.94314 2.94315C1.13712 4.77146 0 7.24638 0 9.98885C0 12.1739 0.713489 14.2029 1.89521 15.8528L0.668896 19.5764L4.5039 18.3501C6.08696 19.398 7.95987 20 10.0111 20C15.5184 20 20 15.5184 20 10.0111C20 4.48161 15.5184 0 10.0111 0ZM15.8305 14.1137C15.5853 14.7826 14.6265 15.3623 13.8685 15.5184C13.3556 15.6299 12.6644 15.7191 10.3679 14.7603C7.42475 13.534 5.52954 10.5463 5.39576 10.3679C5.26198 10.1672 4.21405 8.78484 4.21405 7.35786C4.21405 5.93088 4.94983 5.21739 5.23969 4.92754C5.48495 4.68227 5.88629 4.57079 6.26533 4.57079C6.37681 4.57079 6.48829 4.57079 6.59978 4.57079C6.88963 4.59309 7.04571 4.59309 7.22408 5.06132C7.46934 5.64103 8.04905 7.06801 8.11594 7.22408C8.18283 7.38016 8.24972 7.58082 8.16053 7.7592C8.07135 7.95987 7.98216 8.04905 7.82609 8.22743C7.67001 8.4058 7.53623 8.51728 7.38016 8.71795C7.24638 8.87402 7.0903 9.0524 7.26867 9.34225C7.44705 9.63211 8.02676 10.5909 8.89632 11.3489C10.0111 12.3523 10.9253 12.6644 11.2375 12.7982C11.4827 12.9097 11.7726 12.8651 11.9509 12.6867C12.1739 12.4415 12.4415 12.0401 12.7313 11.6611C12.932 11.3712 13.1773 11.3489 13.4448 11.4381C13.7124 11.5273 15.1394 12.2408 15.4292 12.3746C15.7191 12.5307 15.9197 12.5975 15.9866 12.709C16.0758 12.8428 16.0758 13.4448 15.8305 14.1137Z" fill="#5BC7D7"/>
</svg>
